<svg xmlns="http://www.w3.org/2000/svg" viewBox="0 0 200 200" fill="none">
  <g transform="translate(150 148) scale(0.55)">
    <g fill="#FFB892" stroke="#0A0A0A" stroke-width="9" stroke-linejoin="miter">
      <rect x="-11" y="-70" width="22" height="32" transform="rotate(0)"/>
      <rect x="-11" y="-70" width="22" height="32" transform="rotate(45)"/>
      <rect x="-11" y="-70" width="22" height="32" transform="rotate(90)"/>
      <rect x="-11" y="-70" width="22" height="32" transform="rotate(135)"/>
      <rect x="-11" y="-70" width="22" height="32" transform="rotate(180)"/>
      <rect x="-11" y="-70" width="22" height="32" transform="rotate(225)"/>
      <rect x="-11" y="-70" width="22" height="32" transform="rotate(270)"/>
      <rect x="-11" y="-70" width="22" height="32" transform="rotate(315)"/>
    </g>
    <circle r="48" fill="#FFB892" stroke="#0A0A0A" stroke-width="9"/>
    <circle r="18" fill="#FEFAF3" stroke="#0A0A0A" stroke-width="7"/>
  </g>
  <g transform="translate(82 86)">
    <g fill="#7FD9B8" stroke="#0A0A0A" stroke-width="6" stroke-linejoin="miter">
      <rect x="-11" y="-70" width="22" height="32" transform="rotate(0)"/>
      <rect x="-11" y="-70" width="22" height="32" transform="rotate(45)"/>
      <rect x="-11" y="-70" width="22" height="32" transform="rotate(90)"/>
      <rect x="-11" y="-70" width="22" height="32" transform="rotate(135)"/>
      <rect x="-11" y="-70" width="22" height="32" transform="rotate(180)"/>
      <rect x="-11" y="-70" width="22" height="32" transform="rotate(225)"/>
      <rect x="-11" y="-70" width="22" height="32" transform="rotate(270)"/>
      <rect x="-11" y="-70" width="22" height="32" transform="rotate(315)"/>
    </g>
    <circle r="48" fill="#7FD9B8" stroke="#0A0A0A" stroke-width="6"/>
    <circle r="18" fill="#FEFAF3" stroke="#0A0A0A" stroke-width="5"/>
  </g>
</svg>
